<svg xmlns="http://www.w3.org/2000/svg" xmlns:xlink="http://www.w3.org/1999/xlink" width="0" height="0" style="display:none;"><symbol viewBox="0 0 24 24" id="unsplash-fill"><path d="M8.50098 11V16H15.501V11H21.001V21H3.00098V11H8.50098ZM15.501 3V8H8.50098V3H15.501Z"></path></symbol><symbol viewBox="0 0 24 24" id="unsplash-line"><path d="M10.001 10V14H14.0002L14.0012 10H21.0012L21.0002 14L21.001 21H3.00098V10H10.001ZM8.00098 12H5.00098V19H19.001V16L19.0007 12H16.0007L15.9997 16H8.00098V12ZM16.001 3V9H8.00098V3H16.001ZM14.001 5H10.001V7H14.001V5Z"></path></symbol><symbol viewBox="0 0 24 24" id="search-line"><path d="M18.031 16.6168L22.3137 20.8995L20.8995 22.3137L16.6168 18.031C15.0769 19.263 13.124 20 11 20C6.032 20 2 15.968 2 11C2 6.032 6.032 2 11 2C15.968 2 20 6.032 20 11C20 13.124 19.263 15.0769 18.031 16.6168ZM16.0247 15.8748C17.2475 14.6146 18 12.8956 18 11C18 7.1325 14.8675 4 11 4C7.1325 4 4 7.1325 4 11C4 14.8675 7.1325 18 11 18C12.8956 18 14.6146 17.2475 15.8748 16.0247L16.0247 15.8748Z"></path></symbol><symbol viewBox="0 0 24 24" id="timer-flash-line"><path d="M6.38231 5.9681C7.92199 4.73647 9.87499 4 12 4C14.125 4 16.078 4.73647 17.6177 5.9681L19.0711 4.51472L20.4853 5.92893L19.0319 7.38231C20.2635 8.92199 21 10.875 21 13C21 17.9706 16.9706 22 12 22C7.02944 22 3 17.9706 3 13C3 10.875 3.73647 8.92199 4.9681 7.38231L3.51472 5.92893L4.92893 4.51472L6.38231 5.9681ZM12 20C15.866 20 19 16.866 19 13C19 9.13401 15.866 6 12 6C8.13401 6 5 9.13401 5 13C5 16.866 8.13401 20 12 20ZM13 12H16L11 18.5V14H8L13 7.4952V12ZM8 1H16V3H8V1Z"></path></symbol><symbol viewBox="0 0 24 24" id="eye-close-line"><path d="M9.34268 18.7819L7.41083 18.2642L8.1983 15.3254C7.00919 14.8874 5.91661 14.2498 4.96116 13.4534L2.80783 15.6067L1.39362 14.1925L3.54695 12.0392C2.35581 10.6103 1.52014 8.87466 1.17578 6.96818L3.14386 6.61035C3.90289 10.8126 7.57931 14.0001 12.0002 14.0001C16.4211 14.0001 20.0976 10.8126 20.8566 6.61035L22.8247 6.96818C22.4803 8.87466 21.6446 10.6103 20.4535 12.0392L22.6068 14.1925L21.1926 15.6067L19.0393 13.4534C18.0838 14.2498 16.9912 14.8874 15.8021 15.3254L16.5896 18.2642L14.6578 18.7819L13.87 15.8418C13.2623 15.9459 12.6376 16.0001 12.0002 16.0001C11.3629 16.0001 10.7381 15.9459 10.1305 15.8418L9.34268 18.7819Z"></path></symbol><symbol viewBox="0 0 24 24" id="eye-line"><path d="M12.0003 3C17.3924 3 21.8784 6.87976 22.8189 12C21.8784 17.1202 17.3924 21 12.0003 21C6.60812 21 2.12215 17.1202 1.18164 12C2.12215 6.87976 6.60812 3 12.0003 3ZM12.0003 19C16.2359 19 19.8603 16.052 20.7777 12C19.8603 7.94803 16.2359 5 12.0003 5C7.7646 5 4.14022 7.94803 3.22278 12C4.14022 16.052 7.7646 19 12.0003 19ZM12.0003 16.5C9.51498 16.5 7.50026 14.4853 7.50026 12C7.50026 9.51472 9.51498 7.5 12.0003 7.5C14.4855 7.5 16.5003 9.51472 16.5003 12C16.5003 14.4853 14.4855 16.5 12.0003 16.5ZM12.0003 14.5C13.381 14.5 14.5003 13.3807 14.5003 12C14.5003 10.6193 13.381 9.5 12.0003 9.5C10.6196 9.5 9.50026 10.6193 9.50026 12C9.50026 13.3807 10.6196 14.5 12.0003 14.5Z"></path></symbol><symbol viewBox="0 0 24 24" id="thunderstorms-line"><path d="M17 18V16H17.5C19.433 16 21 14.433 21 12.5C21 10.567 19.433 9 17.5 9C16.5205 9 15.6351 9.40232 14.9998 10.0507C14.9999 10.0338 15 10.0169 15 10C15 6.68629 12.3137 4 9 4C5.68629 4 3 6.68629 3 10C3 12.6124 4.66962 14.8349 7 15.6586V17.748C3.54955 16.8599 1 13.7277 1 10C1 5.58172 4.58172 2 9 2C12.3949 2 15.2959 4.11466 16.4576 7.09864C16.7951 7.0339 17.1436 7 17.5 7C20.5376 7 23 9.46243 23 12.5C23 15.5376 20.5376 18 17.5 18H17ZM13 16.0048H16L11 22.5048V18.0048H8L13 11.5V16.0048Z"></path></symbol><symbol viewBox="0 0 24 24" id="drizzle-line"><path d="M17 18V16H17.5C19.433 16 21 14.433 21 12.5C21 10.567 19.433 9 17.5 9C16.5205 9 15.6351 9.40232 14.9998 10.0507C14.9999 10.0338 15 10.0169 15 10C15 6.68629 12.3137 4 9 4C5.68629 4 3 6.68629 3 10C3 12.6124 4.66962 14.8349 7 15.6586V17.748C3.54955 16.8599 1 13.7277 1 10C1 5.58172 4.58172 2 9 2C12.3949 2 15.2959 4.11466 16.4576 7.09864C16.7951 7.0339 17.1436 7 17.5 7C20.5376 7 23 9.46243 23 12.5C23 15.5376 20.5376 18 17.5 18H17ZM9 16H11V20H9V16ZM13 19H15V23H13V19Z"></path></symbol><symbol viewBox="0 0 24 24" id="rainy-line"><path d="M16 18V16H17C19.2091 16 21 14.2091 21 12C21 9.79086 19.2091 8 17 8C16.2057 8 15.4654 8.23153 14.8431 8.63079C14.2236 5.97685 11.8427 4 9 4C5.68629 4 3 6.68629 3 10C3 12.973 5.16229 15.441 8 15.917V17.9381C4.05369 17.446 1 14.0796 1 10C1 5.58172 4.58172 2 9 2C11.9967 2 14.6086 3.64768 15.9791 6.08651C16.3109 6.02963 16.652 6 17 6C20.3137 6 23 8.68629 23 12C23 15.3137 20.3137 18 17 18H16ZM10.2322 18.7322L12 16.9645L13.7678 18.7322C14.7441 19.7085 14.7441 21.2915 13.7678 22.2678C12.7915 23.2441 11.2085 23.2441 10.2322 22.2678C9.25592 21.2915 9.25592 19.7085 10.2322 18.7322Z"></path></symbol><symbol viewBox="0 0 24 24" id="snowy-line"><path d="M13 16.268L14.9641 15.134L15.9641 16.866L14 18L15.9641 19.134L14.9641 20.866L13 19.732V22H11V19.732L9.0359 20.866L8.0359 19.134L10 18L8.0359 16.866L9.0359 15.134L11 16.268V14H13V16.268ZM17 18V16H17.5C19.433 16 21 14.433 21 12.5C21 10.567 19.433 9 17.5 9C16.5205 9 15.6351 9.40232 14.9998 10.0507C14.9999 10.0338 15 10.0169 15 10C15 6.68629 12.3137 4 9 4C5.68629 4 3 6.68629 3 10C3 12.6124 4.66962 14.8349 7 15.6586V17.748C3.54955 16.8599 1 13.7277 1 10C1 5.58172 4.58172 2 9 2C12.3949 2 15.2959 4.11466 16.4576 7.09864C16.7951 7.0339 17.1436 7 17.5 7C20.5376 7 23 9.46243 23 12.5C23 15.5376 20.5376 18 17.5 18H17Z"></path></symbol><symbol viewBox="0 0 24 24" id="mist-line"><path d="M4 4H8V6H4V4ZM16 19H20V21H16V19ZM2 9H7V11H2V9ZM9 9H12V11H9V9ZM14 9H20V11H14V9ZM4 14H10V16H4V14ZM12 14H15V16H12V14ZM17 14H22V16H17V14ZM10 4H22V6H10V4ZM2 19H14V21H2V19Z"></path></symbol><symbol viewBox="0 0 24 24" id="sun-line"><path d="M12 18C8.68629 18 6 15.3137 6 12C6 8.68629 8.68629 6 12 6C15.3137 6 18 8.68629 18 12C18 15.3137 15.3137 18 12 18ZM12 16C14.2091 16 16 14.2091 16 12C16 9.79086 14.2091 8 12 8C9.79086 8 8 9.79086 8 12C8 14.2091 9.79086 16 12 16ZM11 1H13V4H11V1ZM11 20H13V23H11V20ZM3.51472 4.92893L4.92893 3.51472L7.05025 5.63604L5.63604 7.05025L3.51472 4.92893ZM16.9497 18.364L18.364 16.9497L20.4853 19.0711L19.0711 20.4853L16.9497 18.364ZM19.0711 3.51472L20.4853 4.92893L18.364 7.05025L16.9497 5.63604L19.0711 3.51472ZM5.63604 16.9497L7.05025 18.364L4.92893 20.4853L3.51472 19.0711L5.63604 16.9497ZM23 11V13H20V11H23ZM4 11V13H1V11H4Z"></path></symbol><symbol viewBox="0 0 24 24" id="moon-line"><path d="M10 7C10 10.866 13.134 14 17 14C18.9584 14 20.729 13.1957 21.9995 11.8995C22 11.933 22 11.9665 22 12C22 17.5228 17.5228 22 12 22C6.47715 22 2 17.5228 2 12C2 6.47715 6.47715 2 12 2C12.0335 2 12.067 2 12.1005 2.00049C10.8043 3.27098 10 5.04157 10 7ZM4 12C4 16.4183 7.58172 20 12 20C15.0583 20 17.7158 18.2839 19.062 15.7621C18.3945 15.9187 17.7035 16 17 16C12.0294 16 8 11.9706 8 7C8 6.29648 8.08133 5.60547 8.2379 4.938C5.71611 6.28423 4 8.9417 4 12Z"></path></symbol><symbol viewBox="0 0 24 24" id="sun-cloudy-line"><path d="M9.98392 5.05991C11.1323 3.22236 13.1734 2 15.5 2C19.0899 2 22 4.91015 22 8.5C22 9.58031 21.7365 10.5991 21.2701 11.4955C22.3351 12.4985 23 13.9216 23 15.5C23 18.5376 20.5376 21 17.5 21H9C4.58172 21 1 17.4183 1 13C1 8.58172 4.58172 5 9 5C9.33312 5 9.66149 5.02036 9.98392 5.05991ZM12.0554 5.60419C14.0675 6.43637 15.6662 8.06578 16.4576 10.0986C16.7951 10.0339 17.1436 10 17.5 10C18.2351 10 18.9366 10.1442 19.5776 10.4059C19.8486 9.82719 20 9.18128 20 8.5C20 6.01472 17.9853 4 15.5 4C14.1177 4 12.8809 4.6233 12.0554 5.60419ZM17.5 19C19.433 19 21 17.433 21 15.5C21 13.567 19.433 12 17.5 12C16.5205 12 15.6351 12.4023 14.9998 13.0507C14.9999 13.0338 15 13.0169 15 13C15 9.68629 12.3137 7 9 7C5.68629 7 3 9.68629 3 13C3 16.3137 5.68629 19 9 19H17.5Z"></path></symbol><symbol viewBox="0 0 24 24" id="moon-cloudy-line"><path d="M8.67047 5.00666C9.79257 2.63812 12.205 1 15 1C15.4162 1 15.8239 1.03632 16.2201 1.10596C16.0772 1.54488 16 2.01342 16 2.5C16 4.98528 18.0147 7 20.5 7C20.9866 7 21.4551 6.92277 21.894 6.77991C21.9637 7.17612 22 7.58382 22 8C22 9.2228 21.6865 10.3724 21.1354 11.3727C22.2787 12.3806 23 13.856 23 15.5C23 18.5376 20.5376 21 17.5 21H9C4.58172 21 1 17.4183 1 13C1 8.6921 4.405 5.17948 8.67047 5.00666ZM10.8473 5.21433C13.4205 5.82257 15.5135 7.67351 16.4576 10.0986C16.7951 10.0339 17.1436 10 17.5 10C18.1745 10 18.8207 10.1214 19.4179 10.3436C19.6433 9.91944 19.8095 9.45894 19.9054 8.97316C16.79 8.69062 14.3094 6.20996 14.0268 3.09465C12.7061 3.35519 11.5722 4.13582 10.8473 5.21433ZM17.5 19C19.433 19 21 17.433 21 15.5C21 13.567 19.433 12 17.5 12C16.5205 12 15.6351 12.4023 14.9998 13.0507C14.9999 13.0338 15 13.0169 15 13C15 9.68629 12.3137 7 9 7C5.68629 7 3 9.68629 3 13C3 16.3137 5.68629 19 9 19H17.5Z"></path></symbol><symbol viewBox="0 0 24 24" id="cloudy-line"><path d="M9.5 6C5.91015 6 3 8.91015 3 12.5C3 16.0899 5.91015 19 9.5 19H16.5C18.9853 19 21 16.9853 21 14.5C21 12.0147 18.9853 10 16.5 10C16.1717 10 15.8516 10.0352 15.5433 10.1019C14.589 7.69894 12.2429 6 9.5 6ZM16.5 21H9.5C4.80558 21 1 17.1944 1 12.5C1 7.80558 4.80558 4 9.5 4C12.5433 4 15.2131 5.59939 16.7146 8.00348C20.2051 8.11671 23 10.982 23 14.5C23 18.0899 20.0899 21 16.5 21Z"></path></symbol><symbol viewBox="0 0 24 24" id="cloudy-2-line"><path d="M17 21H7C3.68629 21 1 18.3137 1 15C1 12.3846 2.67346 10.16 5.00804 9.33857C5.0027 9.22639 5 9.11351 5 9C5 5.13401 8.13401 2 12 2C15.866 2 19 5.13401 19 9C19 9.11351 18.9973 9.22639 18.992 9.33857C21.3265 10.16 23 12.3846 23 15C23 18.3137 20.3137 21 17 21ZM7 19H17C19.2091 19 21 17.2091 21 15C21 12.7909 19.2091 11 17 11C16.8561 11 16.714 11.0076 16.5741 11.0224C16.8479 10.4041 17 9.71979 17 9C17 6.23858 14.7614 4 12 4C9.23858 4 7 6.23858 7 9C7 9.71979 7.15209 10.4041 7.4259 11.0224C7.28596 11.0076 7.14387 11 7 11C4.79086 11 3 12.7909 3 15C3 17.2091 4.79086 19 7 19Z"></path></symbol></svg>